<svg xmlns="http://www.w3.org/2000/svg" fill="none" viewBox="0 0 316 316"><g clip-path="url(#a)"><path fill="#fff" d="M291.66 292.05H24.236c-10.072 0-18.237-8.165-18.237-18.237V97.364c0-10.072 8.165-18.237 18.237-18.237H291.66c10.072 0 18.237 8.165 18.237 18.237v176.449c0 10.072-8.165 18.237-18.237 18.237Z"/><path fill="#D3E6F8" d="M291.66 79.127h-14.726v212.922h14.726c10.072 0 18.237-8.165 18.237-18.236V97.364c0-10.072-8.165-18.237-18.237-18.237Z"/><path fill="#4C4372" d="M291.66 298.05H24.236C10.872 298.05 0 287.177 0 273.813V97.364C0 84 10.872 73.127 24.236 73.127H291.66c13.364 0 24.236 10.873 24.236 24.237v176.448c0 13.365-10.872 24.238-24.236 24.238ZM24.236 85.127C17.489 85.127 12 90.616 12 97.364v176.448c0 6.748 5.489 12.237 12.236 12.237H291.66c6.747 0 12.236-5.489 12.236-12.237V97.364c0-6.748-5.489-12.237-12.236-12.237H24.236Z"/><path fill="#7BABF1" d="M38.962 115.793h109.975v139.591H38.962V115.793Z"/><path fill="#FD919E" d="M148.937 255.384H38.962v-29.859c0-10.294 8.345-18.638 18.638-18.638h72.698c10.294 0 18.638 8.345 18.638 18.638l.001 29.859Z"/><path fill="#4C4372" d="M148.937 261.384H38.962a6 6 0 0 1-6-6v-29.86c0-13.585 11.053-24.638 24.639-24.638h72.698c13.586 0 24.639 11.053 24.639 24.638v29.86a6.004 6.004 0 0 1-6.001 6Zm-103.975-12h97.976v-23.86c0-6.969-5.67-12.638-12.639-12.638H57.601c-6.969 0-12.639 5.669-12.639 12.638v23.86Z"/><path fill="#D3E6F8" d="M93.937 228.275c-8.058 0-14.591-6.533-14.591-14.591v-26.002h29.182v26.002c.001 8.058-6.532 14.591-14.591 14.591Z"/><path fill="#4C4372" d="M93.937 234.274c-11.354 0-20.591-9.237-20.591-20.591v-26.002a6.003 6.003 0 0 1 6-6h29.182c1.591 0 3.117.632 4.243 1.757a6.003 6.003 0 0 1 1.757 4.243v26.002c0 11.354-9.237 20.591-20.591 20.591Zm-8.591-40.593v20.002c0 4.737 3.854 8.591 8.591 8.591 4.737 0 8.591-3.854 8.591-8.591v-20.002H85.346Z"/><path fill="#fff" d="M93.95 129.753c-16.124 0-29.195 13.071-29.195 29.194v14.968c0 16.124 13.071 29.194 29.194 29.194 16.124 0 29.194-13.071 29.194-29.194v-14.968c.001-16.123-13.07-29.194-29.193-29.194Z"/><path fill="#4C4372" d="M93.95 209.11c-19.407 0-35.195-15.788-35.195-35.194v-14.969c0-19.406 15.788-35.194 35.195-35.194 19.406 0 35.194 15.788 35.194 35.194v14.969c0 19.406-15.788 35.194-35.194 35.194Zm0-73.357c-12.79 0-23.195 10.405-23.195 23.194v14.969c0 12.789 10.405 23.194 23.195 23.194 12.789 0 23.194-10.405 23.194-23.194v-14.969c0-12.789-10.405-23.194-23.194-23.194Z"/><path fill="#4C4372" d="M148.937 261.384H38.962a6 6 0 0 1-6-6V115.793a6.002 6.002 0 0 1 6-6h109.976c1.591 0 3.117.632 4.243 1.757a6.003 6.003 0 0 1 1.757 4.243v139.591a6.004 6.004 0 0 1-6.001 6Zm-103.975-12h97.976V121.793H44.962v127.591ZM276.934 121.793h-86.199a6.003 6.003 0 0 1-4.243-1.757 6.003 6.003 0 0 1 0-8.486 6.003 6.003 0 0 1 4.243-1.757h86.199c1.591 0 3.117.632 4.243 1.757a6.003 6.003 0 0 1 0 8.486 6.003 6.003 0 0 1-4.243 1.757ZM276.934 168.323h-86.199a6.003 6.003 0 0 1-4.243-1.757 6.003 6.003 0 0 1 0-8.486 6.003 6.003 0 0 1 4.243-1.757h86.199c1.591 0 3.117.632 4.243 1.757a6.003 6.003 0 0 1 0 8.486 6.003 6.003 0 0 1-4.243 1.757ZM276.934 214.853h-86.199a6.003 6.003 0 0 1-4.243-1.757 6.003 6.003 0 0 1 0-8.486 6.003 6.003 0 0 1 4.243-1.757h86.199c1.591 0 3.117.632 4.243 1.757a6.003 6.003 0 0 1 0 8.486 6.003 6.003 0 0 1-4.243 1.757ZM276.934 261.384h-86.199a6.003 6.003 0 0 1-4.243-1.757 6.003 6.003 0 0 1 0-8.486 6.003 6.003 0 0 1 4.243-1.757h86.199c1.591 0 3.117.632 4.243 1.757a6.003 6.003 0 0 1 0 8.486 6.003 6.003 0 0 1-4.243 1.757Z"/><path fill="#A4CFF2" d="M188.804 96.194h-61.712a5.739 5.739 0 0 1-5.741-5.741V59.597c0-20.212 16.385-36.597 36.597-36.597s36.597 16.385 36.597 36.597v30.856c0 3.17-2.57 5.741-5.741 5.741Z"/><path fill="#4C4372" d="M188.803 102.194h-61.711c-6.475 0-11.741-5.267-11.741-11.741V59.597c0-23.488 19.108-42.597 42.597-42.597s42.597 19.108 42.597 42.597v30.856c0 6.475-5.267 11.741-11.742 11.741Zm-61.452-12h61.193V59.596c0-16.871-13.726-30.597-30.597-30.597-16.871 0-30.597 13.726-30.597 30.597v30.598h.001Z"/><path fill="#7BABF1" d="M157.948 71.51c7.424 0 13.443-6.019 13.443-13.443 0-7.424-6.019-13.443-13.443-13.443-7.424 0-13.443 6.019-13.443 13.443 0 7.424 6.019 13.443 13.443 13.443Z"/><path fill="#4C4372" d="M157.948 77.51c-10.721 0-19.443-8.723-19.443-19.443s8.722-19.443 19.443-19.443c10.721 0 19.443 8.722 19.443 19.442s-8.722 19.444-19.443 19.444Zm0-26.886c-4.104 0-7.443 3.339-7.443 7.442 0 4.104 3.339 7.443 7.443 7.443 4.104 0 7.443-3.339 7.443-7.443 0-4.103-3.339-7.442-7.443-7.442Z"/><path fill="#fff" fill-opacity=".12" d="m-72.921 89.146-8.957-33.74 20.232-5.37.962 3.624-16.146 4.286 3.027 11.4 14.63-3.883.961 3.624-14.63 3.884 4.007 15.09-4.086 1.085ZM-21.702 57.491c.945 3.559 1.119 6.805.522 9.738s-1.83 5.4-3.697 7.4c-1.867 2.001-4.24 3.383-7.118 4.147-2.877.764-5.623.74-8.237-.07-2.613-.812-4.907-2.343-6.88-4.594-1.973-2.25-3.432-5.155-4.377-8.714-.944-3.559-1.118-6.804-.52-9.738.596-2.933 1.828-5.4 3.696-7.4 1.867-2 4.24-3.383 7.117-4.147 2.878-.764 5.624-.74 8.237.07 2.614.812 4.908 2.343 6.88 4.594 1.974 2.251 3.433 5.156 4.377 8.714Zm-3.954 1.05c-.775-2.922-1.919-5.258-3.43-7.008-1.5-1.754-3.216-2.926-5.148-3.519-1.922-.595-3.904-.621-5.947-.079s-3.757 1.55-5.141 3.023c-1.374 1.47-2.282 3.339-2.726 5.608-.433 2.267-.262 4.86.514 7.782.775 2.922 1.913 5.26 3.413 7.013 1.51 1.75 3.227 2.923 5.149 3.518 1.932.592 3.92.617 5.963.075s3.75-1.548 5.124-3.018c1.385-1.473 2.294-3.342 2.727-5.609.443-2.27.278-4.865-.498-7.786ZM-10.354 72.538l-8.956-33.74 11.4-3.027c2.637-.7 4.92-.824 6.85-.372 1.928.44 3.505 1.333 4.732 2.677 1.227 1.344 2.104 3.01 2.632 4.998.527 1.988.589 3.858.184 5.612-.404 1.753-1.33 3.292-2.777 4.617-1.45 1.314-3.483 2.318-6.097 3.011l-9.226 2.45-.98-3.691 9.095-2.414c1.801-.478 3.181-1.127 4.14-1.945.969-.822 1.572-1.782 1.81-2.88.246-1.111.19-2.342-.17-3.693C1.926 42.79 1.36 41.676.587 40.8c-.774-.877-1.788-1.442-3.043-1.697-1.258-.266-2.799-.156-4.622.328l-7.183 1.906 7.994 30.117-4.086 1.084ZM1.505 53.165 13.83 66.118l-4.744 1.26L-3.108 54.39l4.613-1.225ZM32.37 61.197l-8.956-33.74 4.085-1.085 7.995 30.116 15.684-4.163.962 3.624-19.77 5.248ZM58.466 54.27 49.51 20.53l4.086-1.085 7.994 30.116 15.684-4.163.962 3.624-19.77 5.248ZM84.563 47.343l-8.957-33.74 4.086-1.085 7.994 30.116 15.684-4.163.962 3.624-19.77 5.248ZM136.893-2.666l4.086-1.084 5.93 22.34c.612 2.306.615 4.51.009 6.61-.599 2.088-1.742 3.914-3.431 5.48-1.692 1.553-3.862 2.682-6.509 3.385-2.647.702-5.09.798-7.33.288-2.243-.522-4.147-1.539-5.713-3.052-1.557-1.526-2.642-3.443-3.254-5.75l-5.93-22.34 4.085-1.084 5.843 22.01c.437 1.648 1.189 3.018 2.255 4.111 1.063 1.082 2.362 1.813 3.898 2.193 1.543.366 3.254.3 5.132-.199 1.878-.498 3.396-1.29 4.555-2.373 1.155-1.094 1.921-2.373 2.297-3.837.384-1.477.357-3.04-.081-4.687l-5.842-22.01ZM169.829-2.379c-.641-1.617-1.787-2.7-3.438-3.25-1.65-.549-3.497-.552-5.54-.01-1.494.396-2.737.985-3.729 1.766-.981.777-1.672 1.672-2.073 2.684-.391 1.009-.444 2.052-.158 3.128.239.9.659 1.618 1.259 2.152.609.52 1.31.905 2.105 1.152.792.237 1.597.393 2.417.47.817.065 1.56.097 2.23.096l3.672.013c.94-.003 2.002.056 3.186.177 1.195.118 2.38.397 3.555.837a8.756 8.756 0 0 1 3.18 2.013c.937.916 1.615 2.164 2.035 3.746.484 1.823.443 3.597-.121 5.322-.554 1.723-1.628 3.26-3.221 4.612-1.582 1.349-3.669 2.367-6.261 3.055-2.416.641-4.612.807-6.587.496-1.964-.313-3.637-1.033-5.018-2.16-1.369-1.13-2.365-2.6-2.987-4.41l4.218-1.119c.448 1.245 1.156 2.186 2.125 2.822.976.623 2.095.984 3.356 1.084 1.269.087 2.574-.048 3.914-.404 1.559-.413 2.893-1.038 4-1.873 1.104-.845 1.897-1.82 2.38-2.924.48-1.115.557-2.288.23-3.518-.297-1.12-.852-1.949-1.665-2.485-.812-.537-1.788-.89-2.926-1.058a26.86 26.86 0 0 0-3.617-.274l-4.467-.084c-2.837-.058-5.211-.586-7.122-1.584-1.911-.998-3.168-2.633-3.771-4.907-.502-1.889-.428-3.672.22-5.349.656-1.69 1.749-3.156 3.277-4.397 1.536-1.254 3.381-2.167 5.534-2.739 2.174-.577 4.211-.7 6.109-.37 1.896.32 3.516 1.02 4.86 2.097 1.355 1.075 2.286 2.456 2.793 4.144l-3.954 1.05ZM187.679 19.971l-8.956-33.74 20.363-5.405.962 3.624-16.277 4.32L186.797.172l15.223-4.04.962 3.624-15.223 4.04 3.044 11.467 16.54-4.39.963 3.624-20.627 5.475ZM252.445-15.28c.945 3.56 1.118 6.805.521 9.738-.597 2.934-1.829 5.4-3.696 7.401-1.868 2-4.24 3.383-7.118 4.147-2.877.764-5.623.74-8.237-.071-2.614-.811-4.907-2.342-6.88-4.593-1.973-2.251-3.432-5.156-4.377-8.715-.944-3.558-1.118-6.804-.521-9.737.597-2.933 1.829-5.4 3.697-7.4 1.867-2.001 4.239-3.384 7.117-4.147 2.878-.764 5.623-.74 8.237.07 2.614.811 4.907 2.343 6.88 4.593 1.974 2.251 3.432 5.156 4.377 8.715Zm-3.954 1.05c-.776-2.921-1.919-5.257-3.43-7.008-1.5-1.753-3.216-2.926-5.149-3.518-1.921-.595-3.903-.622-5.946-.08-2.043.543-3.757 1.55-5.141 3.023-1.374 1.47-2.282 3.34-2.726 5.609-.433 2.266-.262 4.86.513 7.782.776 2.921 1.914 5.259 3.414 7.012 1.511 1.75 3.227 2.924 5.149 3.519 1.932.592 3.92.617 5.963.075 2.043-.543 3.751-1.549 5.124-3.018 1.385-1.473 2.293-3.343 2.726-5.61.444-2.269.279-4.864-.497-7.786ZM281.592-41.075l8.956 33.74-3.954 1.05-25.418-21.611-.329.087 7.032 26.492-4.086 1.084-8.956-33.74 3.954-1.05 25.501 21.66.33-.088-7.05-26.557 4.02-1.067ZM298.724-9.505l-8.956-33.74 4.086-1.085 7.994 30.116 15.684-4.163.962 3.624-19.77 5.248ZM311.379-48.982l4.679-1.242 13.538 13.266.396-.105 5.177-18.234 4.678-1.242-6.926 23.072 3.691 13.905-4.085 1.085-3.691-13.905-17.457-16.6ZM88.079 167.146l-8.957-33.74 20.232-5.371.962 3.625-16.146 4.286 3.027 11.4 14.629-3.883.962 3.624-14.63 3.884 4.007 15.091-4.086 1.084ZM139.298 135.491c.945 3.559 1.119 6.805.522 9.738s-1.83 5.4-3.697 7.401c-1.867 2-4.24 3.382-7.118 4.146-2.877.764-5.623.741-8.237-.071-2.613-.811-4.907-2.342-6.88-4.593-1.973-2.251-3.432-5.155-4.376-8.714-.945-3.559-1.119-6.804-.522-9.738.597-2.933 1.829-5.4 3.697-7.4 1.867-2.001 4.24-3.383 7.117-4.147 2.878-.764 5.624-.74 8.237.071 2.614.811 4.908 2.342 6.881 4.593 1.973 2.251 3.432 5.156 4.376 8.714Zm-3.954 1.05c-.775-2.922-1.919-5.258-3.43-7.008-1.5-1.754-3.216-2.926-5.149-3.518-1.921-.596-3.903-.622-5.946-.08-2.043.543-3.757 1.55-5.141 3.023-1.374 1.469-2.282 3.339-2.726 5.608-.433 2.267-.262 4.861.513 7.782.776 2.922 1.914 5.259 3.414 7.013 1.511 1.75 3.227 2.923 5.149 3.518 1.932.592 3.92.617 5.963.075s3.751-1.548 5.124-3.018c1.385-1.473 2.293-3.342 2.726-5.609.444-2.269.279-4.865-.497-7.786ZM150.646 150.538l-8.956-33.741 11.401-3.026c2.636-.7 4.919-.824 6.849-.372 1.928.441 3.505 1.333 4.732 2.677 1.227 1.344 2.104 3.01 2.632 4.998.527 1.988.589 3.858.184 5.612-.404 1.753-1.33 3.292-2.777 4.617-1.451 1.314-3.483 2.318-6.097 3.011l-9.226 2.449-.979-3.69 9.094-2.414c1.801-.478 3.181-1.127 4.139-1.945.97-.822 1.573-1.782 1.811-2.879.246-1.112.189-2.343-.169-3.694-.359-1.351-.925-2.465-1.698-3.341-.774-.877-1.788-1.442-3.043-1.697-1.258-.265-2.799-.156-4.622.328l-7.183 1.906 7.994 30.117-4.086 1.084Zm11.859-19.373 12.327 12.953-4.745 1.26-12.195-12.988 4.613-1.225ZM193.37 139.197l-8.956-33.74 4.085-1.085 7.995 30.116 15.684-4.163.962 3.625-19.77 5.247ZM219.466 132.27l-8.956-33.74 4.086-1.085 7.994 30.116 15.684-4.163.962 3.624-19.77 5.248ZM245.562 125.343l-8.956-33.74 4.086-1.085 7.994 30.116 15.684-4.163.962 3.624-19.77 5.248ZM297.893 75.334l4.086-1.084 5.93 22.34c.612 2.306.615 4.51.009 6.611-.599 2.087-1.742 3.913-3.431 5.478-1.692 1.555-3.862 2.683-6.509 3.386-2.647.702-5.09.798-7.33.288-2.243-.522-4.147-1.539-5.713-3.052-1.557-1.526-2.642-3.443-3.254-5.749l-5.93-22.34 4.085-1.085 5.843 22.011c.437 1.647 1.189 3.017 2.255 4.11 1.063 1.082 2.362 1.813 3.898 2.193 1.543.366 3.254.3 5.132-.199 1.878-.498 3.396-1.289 4.555-2.373 1.155-1.094 1.921-2.373 2.297-3.837.384-1.477.357-3.04-.081-4.687l-5.842-22.01ZM330.829 75.621c-.641-1.617-1.787-2.7-3.438-3.25-1.65-.549-3.497-.552-5.54-.01-1.494.396-2.737.985-3.729 1.766-.981.777-1.672 1.672-2.073 2.684-.391 1.009-.444 2.052-.158 3.128.239.9.659 1.618 1.259 2.152a5.9 5.9 0 0 0 2.105 1.153c.792.236 1.597.392 2.417.469.817.065 1.56.097 2.23.096l3.672.013c.94-.003 2.002.056 3.186.177 1.195.118 2.38.397 3.555.837a8.755 8.755 0 0 1 3.18 2.013c.937.916 1.615 2.164 2.035 3.746.484 1.823.443 3.597-.121 5.323-.554 1.722-1.628 3.26-3.221 4.611-1.582 1.348-3.669 2.367-6.261 3.055-2.416.641-4.612.807-6.587.496-1.964-.313-3.637-1.033-5.018-2.16-1.369-1.129-2.365-2.6-2.987-4.41l4.218-1.119c.448 1.245 1.156 2.186 2.125 2.822.976.623 2.095.984 3.356 1.085 1.269.086 2.574-.049 3.914-.404 1.559-.415 2.893-1.039 4-1.874 1.104-.845 1.897-1.82 2.38-2.924.48-1.115.557-2.288.23-3.518-.297-1.12-.852-1.949-1.665-2.485-.812-.537-1.788-.89-2.926-1.058a26.86 26.86 0 0 0-3.617-.274l-4.467-.084c-2.837-.058-5.211-.586-7.122-1.584-1.911-.998-3.168-2.633-3.771-4.907-.502-1.889-.428-3.672.22-5.349.656-1.69 1.749-3.157 3.277-4.397 1.536-1.254 3.381-2.167 5.534-2.739 2.174-.577 4.211-.7 6.109-.37 1.896.32 3.516 1.02 4.86 2.097 1.355 1.075 2.286 2.456 2.793 4.144l-3.954 1.05ZM348.679 97.972l-8.956-33.741 20.363-5.405.962 3.624-16.277 4.32 3.026 11.401 15.223-4.04.962 3.624-15.223 4.04 3.044 11.468 16.54-4.391.963 3.624-20.627 5.476ZM413.445 62.72c.945 3.56 1.118 6.805.521 9.738-.597 2.934-1.829 5.4-3.696 7.401-1.868 2-4.24 3.383-7.118 4.147-2.877.764-5.623.74-8.237-.071-2.614-.811-4.907-2.342-6.88-4.593-1.973-2.251-3.432-5.156-4.377-8.715-.944-3.558-1.118-6.804-.521-9.737.597-2.933 1.829-5.4 3.697-7.4 1.867-2.001 4.239-3.384 7.117-4.148 2.878-.763 5.623-.74 8.237.071 2.614.812 4.907 2.343 6.88 4.594 1.974 2.25 3.432 5.155 4.377 8.714Zm-3.954 1.05c-.776-2.921-1.919-5.257-3.43-7.008-1.5-1.753-3.216-2.926-5.149-3.518-1.921-.595-3.903-.622-5.946-.08-2.043.543-3.757 1.55-5.141 3.023-1.374 1.47-2.282 3.34-2.726 5.609-.433 2.266-.262 4.86.513 7.782.776 2.921 1.914 5.259 3.414 7.012 1.511 1.75 3.227 2.924 5.149 3.519 1.932.592 3.92.617 5.963.075 2.043-.543 3.751-1.549 5.124-3.019 1.385-1.472 2.293-3.342 2.726-5.608.444-2.27.279-4.865-.497-7.787ZM442.592 36.925l8.956 33.74-3.954 1.05-25.418-21.611-.329.087 7.032 26.492-4.086 1.084-8.956-33.74 3.954-1.05 25.501 21.66.33-.088-7.05-26.557 4.02-1.067ZM459.724 68.495l-8.956-33.74 4.086-1.085 7.994 30.116 15.684-4.163.962 3.625-19.77 5.247ZM472.379 29.018l4.679-1.242 13.538 13.266.396-.105 5.177-18.234 4.678-1.242-6.926 23.072 3.691 13.905-4.085 1.085-3.691-13.905-17.457-16.6ZM-107.921 329.146l-8.957-33.74 20.232-5.371.962 3.625-16.146 4.285 3.027 11.401 14.63-3.883.961 3.624-14.629 3.884 4.005 15.091-4.085 1.084ZM-56.702 297.491c.945 3.559 1.119 6.805.522 9.738s-1.83 5.4-3.697 7.401c-1.867 2-4.24 3.382-7.118 4.146-2.877.764-5.623.74-8.237-.071-2.613-.811-4.907-2.342-6.88-4.593-1.973-2.251-3.432-5.155-4.377-8.714-.944-3.559-1.118-6.805-.52-9.738.596-2.933 1.828-5.4 3.696-7.4 1.867-2.001 4.24-3.383 7.117-4.147 2.878-.764 5.624-.74 8.237.071 2.614.811 4.908 2.342 6.88 4.593 1.974 2.251 3.433 5.156 4.377 8.714Zm-3.954 1.05c-.775-2.922-1.919-5.258-3.43-7.008-1.5-1.754-3.216-2.926-5.148-3.519-1.922-.595-3.904-.621-5.947-.079s-3.757 1.55-5.141 3.023c-1.374 1.469-2.282 3.339-2.726 5.608-.433 2.267-.262 4.861.514 7.782.775 2.922 1.913 5.259 3.413 7.013 1.51 1.75 3.227 2.923 5.149 3.518 1.932.592 3.92.617 5.963.075s3.75-1.548 5.124-3.018c1.385-1.473 2.293-3.342 2.727-5.609.443-2.269.278-4.865-.498-7.786ZM-45.354 312.538l-8.956-33.741 11.4-3.026c2.637-.7 4.92-.824 6.85-.372 1.928.441 3.505 1.333 4.732 2.677 1.227 1.344 2.104 3.01 2.632 4.998.527 1.988.589 3.858.184 5.612-.404 1.753-1.33 3.292-2.777 4.617-1.45 1.314-3.483 2.317-6.097 3.011l-9.226 2.449-.98-3.69 9.095-2.414c1.801-.478 3.181-1.127 4.14-1.945.969-.822 1.572-1.782 1.81-2.879.246-1.112.19-2.343-.17-3.694-.358-1.351-.924-2.465-1.697-3.341-.774-.877-1.788-1.442-3.043-1.697-1.258-.266-2.799-.156-4.622.328l-7.183 1.906 7.994 30.116-4.086 1.085Zm11.859-19.373 12.326 12.953-4.744 1.26-12.195-12.988 4.613-1.225ZM-2.63 301.197l-8.956-33.74 4.085-1.085 7.995 30.116 15.684-4.163.962 3.624-19.77 5.248ZM23.466 294.27l-8.956-33.74 4.086-1.085 7.994 30.116 15.684-4.163.962 3.624-19.77 5.248ZM49.563 287.343l-8.957-33.741 4.086-1.084 7.994 30.116 15.684-4.163.962 3.624-19.77 5.248ZM101.893 237.334l4.086-1.084 5.93 22.34c.612 2.306.615 4.51.009 6.611-.599 2.087-1.742 3.913-3.431 5.478-1.692 1.554-3.862 2.683-6.509 3.385-2.647.703-5.09.799-7.33.289-2.243-.522-4.147-1.539-5.713-3.052-1.557-1.526-2.642-3.443-3.254-5.749l-5.93-22.34 4.085-1.085 5.843 22.011c.437 1.647 1.189 3.017 2.255 4.11 1.063 1.082 2.362 1.812 3.898 2.193 1.543.366 3.254.3 5.132-.199 1.878-.498 3.396-1.289 4.555-2.373 1.155-1.094 1.921-2.373 2.297-3.837.384-1.477.357-3.04-.081-4.687l-5.842-22.011ZM134.829 237.621c-.641-1.617-1.787-2.7-3.438-3.249-1.65-.55-3.497-.553-5.54-.011-1.494.396-2.737.985-3.729 1.766-.981.777-1.672 1.672-2.073 2.684-.391 1.009-.444 2.052-.158 3.128.239.901.659 1.618 1.259 2.152.609.521 1.31.905 2.105 1.152.792.237 1.597.393 2.417.47.817.065 1.56.097 2.23.096l3.672.013c.94-.003 2.002.056 3.186.177 1.195.117 2.38.397 3.555.837a8.765 8.765 0 0 1 3.18 2.013c.937.915 1.615 2.164 2.035 3.746.484 1.823.443 3.597-.121 5.322-.554 1.723-1.628 3.26-3.221 4.612-1.582 1.348-3.669 2.367-6.261 3.055-2.416.641-4.612.807-6.587.496-1.964-.313-3.637-1.033-5.018-2.16-1.369-1.129-2.365-2.599-2.987-4.409l4.218-1.12c.448 1.245 1.156 2.186 2.125 2.822.976.623 2.095.984 3.356 1.084 1.269.087 2.574-.048 3.914-.404 1.559-.414 2.893-1.038 4-1.873 1.104-.845 1.897-1.82 2.38-2.924.48-1.115.557-2.288.23-3.518-.297-1.12-.852-1.949-1.665-2.485-.812-.537-1.788-.89-2.926-1.058a26.96 26.96 0 0 0-3.617-.274l-4.467-.084c-2.837-.058-5.211-.586-7.122-1.584-1.911-.998-3.168-2.633-3.771-4.907-.502-1.889-.428-3.672.22-5.349.656-1.691 1.749-3.157 3.277-4.397 1.536-1.254 3.381-2.167 5.534-2.739 2.174-.577 4.211-.7 6.109-.369 1.896.32 3.516 1.018 4.86 2.096 1.355 1.074 2.286 2.456 2.793 4.144l-3.954 1.049ZM152.679 259.971l-8.956-33.74 20.363-5.405.962 3.624-16.277 4.321 3.026 11.4 15.223-4.04.962 3.624-15.223 4.041 3.044 11.466 16.54-4.39.963 3.624-20.627 5.475ZM217.445 224.721c.945 3.558 1.118 6.804.521 9.737-.597 2.933-1.829 5.4-3.696 7.401-1.868 2.001-4.24 3.383-7.118 4.147-2.877.763-5.623.74-8.237-.071-2.614-.811-4.907-2.342-6.88-4.593-1.973-2.251-3.432-5.156-4.377-8.715-.944-3.558-1.118-6.804-.521-9.737.597-2.933 1.829-5.4 3.697-7.401 1.867-2.001 4.239-3.383 7.117-4.147 2.878-.763 5.623-.74 8.237.071 2.614.811 4.907 2.342 6.88 4.593 1.974 2.251 3.432 5.156 4.377 8.715Zm-3.954 1.049c-.776-2.921-1.919-5.257-3.43-7.008-1.5-1.753-3.216-2.926-5.149-3.518-1.921-.595-3.903-.622-5.946-.079-2.043.542-3.757 1.549-5.141 3.022-1.374 1.47-2.282 3.339-2.726 5.609-.433 2.266-.262 4.86.513 7.782.776 2.921 1.914 5.259 3.414 7.012 1.511 1.751 3.227 2.923 5.149 3.519 1.932.592 3.92.617 5.963.074 2.043-.542 3.751-1.548 5.124-3.018 1.385-1.472 2.293-3.342 2.726-5.608.444-2.27.279-4.865-.497-7.787ZM246.592 198.925l8.956 33.74-3.954 1.05-25.418-21.611-.329.087 7.032 26.492-4.086 1.084-8.956-33.74 3.954-1.05 25.501 21.66.33-.088-7.05-26.557 4.02-1.067ZM263.724 230.495l-8.956-33.74 4.086-1.085 7.994 30.116 15.684-4.163.962 3.624-19.77 5.248ZM276.379 191.018l4.679-1.242 13.538 13.266.396-.105 5.177-18.234 4.678-1.242-6.926 23.072 3.691 13.905-4.085 1.085-3.691-13.905-17.457-16.6ZM123.079 380.146l-8.957-33.74 20.232-5.371.962 3.625-16.146 4.285 3.027 11.401 14.629-3.883.962 3.624-14.629 3.884 4.005 15.091-4.085 1.084ZM174.298 348.491c.945 3.559 1.119 6.805.522 9.738s-1.83 5.4-3.697 7.401c-1.867 2-4.24 3.382-7.118 4.146-2.877.764-5.623.74-8.237-.071-2.613-.811-4.907-2.342-6.88-4.593-1.973-2.251-3.432-5.155-4.376-8.714-.945-3.559-1.119-6.805-.522-9.738s1.829-5.4 3.697-7.4c1.867-2.001 4.24-3.383 7.117-4.147 2.878-.764 5.624-.74 8.237.071 2.614.811 4.908 2.342 6.881 4.593 1.973 2.251 3.432 5.156 4.376 8.714Zm-3.954 1.05c-.775-2.922-1.919-5.258-3.43-7.008-1.5-1.754-3.216-2.926-5.148-3.519-1.922-.595-3.904-.621-5.947-.079s-3.757 1.55-5.141 3.023c-1.374 1.469-2.282 3.339-2.726 5.608-.433 2.267-.262 4.861.514 7.782.775 2.922 1.913 5.259 3.413 7.013 1.511 1.75 3.227 2.923 5.149 3.518 1.932.592 3.92.617 5.963.075s3.751-1.548 5.124-3.018c1.385-1.473 2.293-3.342 2.726-5.609.444-2.269.279-4.865-.497-7.786ZM185.646 363.538l-8.956-33.741 11.401-3.026c2.636-.7 4.919-.824 6.849-.372 1.928.441 3.505 1.333 4.732 2.677 1.227 1.344 2.104 3.01 2.632 4.998.527 1.988.589 3.858.184 5.612-.404 1.753-1.33 3.292-2.777 4.617-1.451 1.314-3.483 2.317-6.097 3.011l-9.226 2.449-.979-3.69 9.094-2.414c1.801-.478 3.181-1.127 4.139-1.945.97-.822 1.573-1.782 1.811-2.879.246-1.112.189-2.343-.169-3.694-.359-1.351-.925-2.465-1.698-3.341-.774-.877-1.788-1.442-3.043-1.697-1.258-.266-2.799-.156-4.622.328l-7.183 1.906 7.994 30.116-4.086 1.085Zm11.859-19.373 12.327 12.953-4.745 1.26-12.195-12.988 4.613-1.225ZM228.37 352.197l-8.956-33.74 4.085-1.085 7.995 30.116 15.684-4.163.962 3.624-19.77 5.248ZM254.466 345.27l-8.956-33.74 4.086-1.085 7.994 30.116 15.684-4.163.962 3.624-19.77 5.248ZM280.562 338.343l-8.956-33.741 4.086-1.084 7.994 30.116 15.684-4.163.962 3.624-19.77 5.248ZM332.893 288.334l4.086-1.084 5.93 22.34c.612 2.306.615 4.51.009 6.611-.599 2.087-1.742 3.913-3.431 5.478-1.692 1.554-3.862 2.683-6.509 3.385-2.647.703-5.09.799-7.33.289-2.243-.522-4.147-1.539-5.713-3.052-1.557-1.526-2.642-3.443-3.254-5.749l-5.93-22.34 4.085-1.085 5.843 22.011c.437 1.647 1.189 3.017 2.255 4.11 1.063 1.082 2.362 1.812 3.898 2.193 1.543.366 3.254.3 5.132-.199 1.878-.498 3.396-1.289 4.555-2.373 1.155-1.094 1.921-2.373 2.297-3.837.384-1.477.357-3.04-.08-4.687l-5.843-22.011ZM365.829 288.621c-.641-1.617-1.787-2.7-3.437-3.249-1.651-.55-3.498-.553-5.541-.011-1.494.396-2.737.985-3.729 1.766-.981.777-1.672 1.672-2.073 2.684-.391 1.009-.443 2.052-.158 3.128.239.901.659 1.618 1.259 2.152.609.521 1.31.905 2.105 1.152.792.237 1.598.393 2.417.47.817.065 1.56.097 2.23.096l3.672.013c.94-.003 2.002.056 3.186.177 1.195.117 2.38.397 3.556.837a8.77 8.77 0 0 1 3.179 2.013c.937.915 1.615 2.164 2.035 3.746.484 1.823.443 3.597-.121 5.322-.554 1.723-1.628 3.26-3.221 4.612-1.582 1.348-3.669 2.367-6.261 3.055-2.416.641-4.612.807-6.587.496-1.964-.313-3.637-1.033-5.018-2.16-1.369-1.129-2.365-2.599-2.987-4.409l4.218-1.12c.448 1.245 1.156 2.186 2.125 2.822.976.623 2.095.984 3.356 1.084 1.269.087 2.574-.048 3.914-.404 1.559-.414 2.893-1.038 4-1.873 1.104-.845 1.897-1.82 2.38-2.924.48-1.115.557-2.288.23-3.518-.297-1.12-.852-1.949-1.665-2.485-.812-.537-1.788-.89-2.926-1.058a26.96 26.96 0 0 0-3.617-.274l-4.467-.084c-2.837-.058-5.211-.586-7.122-1.584-1.911-.998-3.168-2.633-3.771-4.907-.502-1.889-.428-3.672.22-5.349.656-1.691 1.749-3.157 3.277-4.397 1.536-1.254 3.381-2.167 5.534-2.739 2.174-.577 4.211-.7 6.109-.369 1.896.32 3.516 1.018 4.86 2.096 1.355 1.074 2.286 2.456 2.793 4.144l-3.954 1.049ZM383.679 310.971l-8.956-33.74 20.363-5.405.962 3.624-16.277 4.321 3.026 11.4 15.223-4.04.962 3.624-15.223 4.041 3.044 11.466 16.541-4.39.962 3.624-20.627 5.475ZM448.445 275.721c.945 3.558 1.118 6.804.521 9.737-.597 2.933-1.829 5.4-3.696 7.401-1.868 2.001-4.24 3.383-7.118 4.147-2.877.763-5.623.74-8.237-.071-2.614-.811-4.907-2.342-6.88-4.593-1.973-2.251-3.432-5.156-4.377-8.715-.944-3.558-1.118-6.804-.521-9.737.597-2.933 1.829-5.4 3.697-7.401 1.867-2.001 4.239-3.383 7.117-4.147 2.878-.763 5.623-.74 8.237.071 2.614.811 4.907 2.342 6.88 4.593 1.974 2.251 3.432 5.156 4.377 8.715Zm-3.954 1.049c-.775-2.921-1.919-5.257-3.43-7.008-1.5-1.753-3.216-2.926-5.149-3.518-1.921-.595-3.903-.622-5.946-.079-2.043.542-3.757 1.549-5.141 3.022-1.374 1.47-2.282 3.339-2.726 5.609-.433 2.266-.262 4.86.513 7.782.776 2.921 1.914 5.259 3.414 7.012 1.511 1.751 3.227 2.923 5.149 3.519 1.932.592 3.92.617 5.963.074 2.043-.542 3.751-1.548 5.124-3.018 1.385-1.472 2.293-3.342 2.726-5.608.444-2.27.279-4.865-.497-7.787ZM477.592 249.925l8.956 33.74-3.954 1.05-25.418-21.611-.329.087 7.032 26.492-4.086 1.084-8.956-33.74 3.954-1.05 25.501 21.66.33-.088-7.05-26.557 4.02-1.067ZM494.724 281.495l-8.956-33.74 4.086-1.085 7.994 30.116 15.684-4.163.962 3.624-19.77 5.248ZM507.379 242.018l4.679-1.242 13.538 13.266.396-.105 5.177-18.234 4.679-1.242-6.927 23.072 3.691 13.905-4.085 1.085-3.691-13.905-17.457-16.6Z" style="mix-blend-mode:exclusion"/></g><defs><clipPath id="a"><path fill="#fff" d="M0 0h316v316H0z"/></clipPath></defs></svg>